<?xml version="1.0" standalone="no"?>
<!DOCTYPE svg PUBLIC "-//W3C//DTD SVG 20010904//EN"
 "http://www.w3.org/TR/2001/REC-SVG-20010904/DTD/svg10.dtd">
<svg version="1.0" xmlns="http://www.w3.org/2000/svg"
 width="405.000000pt" height="93.000000pt" viewBox="0 0 405.000000 93.000000"
 preserveAspectRatio="xMidYMid meet">

<g transform="translate(0.000000,93.000000) scale(0.100000,-0.100000)"
fill="#ffffff" stroke="none">

<path d="M140 470 l0 -340 65 0 65 0 0 275 0 275 55 0 c111 0 169 -53 146
-132 -14 -46 -46 -69 -106 -76 l-45 -5 0 -63 0 -64 58 0 c135 1 232 100 232
237 0 72 -25 127 -75 172 -63 55 -89 61 -250 61 l-145 0 0 -340z"/>
<path d="M1673 783 l-23 -4 0 -310 0 -309 45 0 45 0 2 173 3 172 56 3 c87 5
93 -6 99 -192 l5 -151 48 -3 47 -3 0 153 c0 140 -2 158 -22 198 -14 26 -37 53
-57 64 -35 20 -105 26 -153 13 l-28 -7 0 105 c0 116 3 111 -67 98z"/>
<path d="M3430 771 c-19 -10 -44 -34 -55 -52 -18 -31 -20 -55 -23 -296 l-3
-263 50 0 51 0 0 175 0 175 75 0 75 0 0 40 0 40 -75 0 -75 0 0 34 c0 19 9 45
22 61 20 26 25 27 79 22 l57 -5 6 36 c3 23 1 39 -7 44 -24 16 -141 9 -177 -11z"/>
<path d="M716 754 c-20 -20 -21 -68 -1 -84 21 -17 64 -16 82 3 19 18 20 61 3
82 -16 20 -64 19 -84 -1z"/>
<path d="M2251 719 c-70 -28 -123 -82 -151 -155 -18 -50 -21 -73 -17 -145 7
-131 55 -208 157 -250 49 -20 204 -18 252 3 l37 17 -13 38 c-14 40 -15 41 -86
23 -66 -17 -133 -8 -173 23 -49 37 -69 87 -70 172 0 80 25 141 75 178 37 27
115 33 174 13 61 -20 61 -20 68 8 3 13 9 31 12 40 9 22 -57 47 -141 52 -55 3
-81 0 -124 -17z"/>
<path d="M975 714 c-5 -1 -27 -5 -48 -9 l-38 -6 3 -222 c3 -240 7 -261 60
-300 19 -15 43 -20 85 -21 84 0 113 9 113 38 0 48 -7 53 -69 48 -83 -6 -91 8
-91 155 l0 113 75 0 75 0 0 40 0 40 -75 0 -74 0 -3 63 c-2 36 -7 63 -13 61z"/>
<path d="M3743 707 l-43 -8 0 -221 c0 -183 3 -226 16 -254 28 -59 99 -83 190
-64 55 12 56 12 50 42 -3 17 -6 34 -6 37 0 4 -26 5 -58 3 -49 -3 -60 -1 -77
18 -17 19 -20 36 -20 134 l0 111 73 3 c39 2 73 7 73 12 9 65 4 70 -76 70 l-74
0 -3 63 -3 63 -42 -9z"/>
<path d="M1355 576 c-80 -37 -115 -102 -115 -210 1 -107 52 -180 145 -205 50
-14 90 -14 138 0 36 10 38 12 35 47 l-3 37 -67 -3 c-110 -6 -148 29 -148 134
0 102 42 140 145 132 l55 -5 10 36 c5 19 8 36 7 36 -1 1 -17 7 -36 14 -53 17
-111 13 -166 -13z"/>
<path d="M2705 593 c-16 -2 -47 -9 -67 -14 l-38 -10 0 -204 0 -205 45 0 45 0
2 173 3 172 72 0 72 0 6 34 c4 18 3 37 -2 42 -10 10 -99 18 -138 12z"/>
<path d="M3022 588 c-33 -7 -42 -13 -38 -25 3 -8 6 -26 6 -39 0 -21 4 -24 20
-19 10 3 47 7 81 7 53 1 65 -2 81 -22 10 -12 18 -33 18 -46 0 -23 -3 -24 -69
-24 -126 0 -186 -48 -178 -143 9 -104 107 -142 290 -113 l48 7 -3 174 -3 174
-29 30 c-47 49 -123 62 -224 39z m168 -293 c0 -50 -2 -55 -26 -61 -31 -8 -91
1 -110 17 -19 16 -18 58 3 81 12 13 31 18 75 18 l58 0 0 -55z"/>
<path d="M710 375 l0 -216 48 3 47 3 0 210 0 210 -47 3 -48 3 0 -216z"/>
</g>
</svg>
